<svg width="100%" height="100%" viewBox="0 0 332 332" version="1.1" xmlns="http://www.w3.org/2000/svg">
  <defs>
    <style>
      path { fill: #000 }
      @media (prefers-color-scheme:dark) {
        path { fill: #fff }
      }
    </style>
  </defs>
  <path d="M331.332,165.977c-0,91.325 -74.034,165.358 -165.354,165.358c-91.325,0 -165.355,-74.033 -165.355,-165.358c0,-91.325 74.03,-165.358 165.355,-165.358c91.32,-0 165.354,74.033 165.354,165.358Zm-53.739,1.367c-17.467,-21.591 -40.817,-26.175 -40.817,-26.175l45.15,-32.637c-0,-0 -0.621,-15.638 -14.9,-31.684c-10.838,-12.175 -26.558,-15.983 -26.558,-15.983l-44.355,32.283c0,0 -2.612,-9.675 -8.82,-16.55c-6.246,-6.925 -15.117,-8.066 -15.117,-8.066l-33.138,23.129c0,-0 -2.637,-9.658 -9.004,-16.163c-5.916,-6.045 -15.604,-7.37 -15.604,-7.37l-34.083,23.395l-0,-6.491l-17.784,-17.784l-23.6,23.6l0.138,0.675l14.871,14.875l-0,40.305l-11.492,11.495l25.017,25.021l24.479,-24.475l-11.763,-11.771l0,-41.283l21.309,-14.404c-0,-0 3.816,1.317 7.675,5.562c3.983,4.384 4.416,10.096 4.416,10.096l0,39.759l-12.845,12.845l23.937,23.942l24.617,-24.617l-10.684,-10.683l0,-42.354l20.855,-14.346c-0,-0 4.283,2.087 7.979,6.421c3.646,4.279 4.566,9.3 4.566,9.3l0,40.167l-12.575,12.579l24.409,24.408l19.004,-19c-0,-0 44.087,11.292 56.712,27.233c19.488,24.6 -5.85,51.196 -5.85,51.196c0,0 -91.391,-75.579 -152.158,21.517c70.55,-58.359 139.683,17.175 139.683,17.175c0,-0 30.963,-47.221 40.284,-63.392c6.483,-11.237 13.712,-29.908 -3.954,-51.75Zm-75.809,-15.625l-5.012,-5.008l0.287,-40.275l23.221,-16.475c0,-0 7.908,2.046 15.313,10.171c8.766,9.612 10.137,19.487 10.137,19.487l-43.946,32.1Z"/></svg>